<svg width="428" height="85" viewBox="0 0 428 85" fill="none" xmlns="http://www.w3.org/2000/svg">
<path d="M5.18044 25.2205C5.01003 25.2205 4.90778 23.3801 4.90778 21.1307V17.0409H27.2314L29.0377 17.8929C29.992 18.3701 31.5938 19.563 32.5481 20.5172C33.5024 21.5056 34.7975 23.4142 35.4451 24.7093C36.0926 26.0044 36.8424 27.9471 37.1151 28.9695C37.4218 29.992 37.7286 32.2414 37.8308 33.9114C38.0012 36.1608 37.899 37.5922 37.49 39.2622C37.1833 40.5573 36.4675 42.5341 35.8881 43.6929C35.2065 45.0561 33.9114 46.7602 32.3777 48.2598C31.0485 49.589 28.9695 51.2249 27.7426 51.9066C26.5156 52.5882 24.3003 53.4403 22.8007 53.8492C20.9262 54.3264 18.9836 54.5309 16.666 54.5309C14.7574 54.5309 12.3717 54.2923 11.2129 54.0196C10.0882 53.7129 8.17963 52.9972 6.98677 52.3837C5.79391 51.8043 4.08982 50.6115 3.23777 49.7594C2.35164 48.9074 1.26103 47.4419 0.817963 46.5217C0.170409 45.1925 0 44.2723 0 42.4318C0 40.6937 0.204491 39.6712 0.715718 38.6828C1.09062 37.933 2.14715 36.672 3.06736 35.8541C3.98757 35.0702 5.41901 34.184 6.27105 33.9114C7.36167 33.5365 9.33842 33.4002 18.1997 33.4002V39.5349L16.9046 39.8757C16.2229 40.0802 15.405 40.421 15.0982 40.6596C14.7915 40.8641 14.3825 41.4094 14.178 41.8184C13.9395 42.2614 13.7691 42.9771 13.7691 43.4543C13.7691 43.9314 14.0076 44.8176 14.2803 45.397C14.5529 46.0104 15.2346 46.7943 15.814 47.101C16.3593 47.4419 17.3476 47.7145 17.9952 47.7145C18.8813 47.7145 19.4607 47.4419 20.2446 46.5898C20.824 46.0104 21.6079 44.7153 21.9487 43.7951C22.2895 42.8408 22.7666 40.7959 22.9711 39.1941C23.312 37.0128 23.312 35.6836 23.0393 33.741C22.8007 32.2755 22.2213 30.2987 21.642 29.1399C21.0626 27.913 20.006 26.5156 19.0177 25.6295C17.893 24.6411 16.7342 23.9936 15.4731 23.6187C14.178 23.2779 13.0193 23.1756 11.7241 23.346C10.7017 23.4824 8.86127 23.9595 7.63433 24.4026C6.40738 24.8456 5.31676 25.2205 5.18044 25.2205Z" fill="#231F20"/>
<path d="M45.9764 20.6195L45.1243 18.8132L44.2723 17.0409H58.757L60.6315 20.6195L60.8019 55.8941H63.0854C64.3805 55.8941 65.5052 55.9623 65.6416 56.0646C65.812 56.1668 64.7895 57.5982 63.4263 59.2682C61.2791 61.9607 60.836 62.3356 59.8477 62.3356C59.2683 62.3697 58.757 62.4719 58.757 62.6083C58.757 62.7787 59.6772 63.2558 60.8019 63.733C61.9607 64.2101 63.6989 65.1985 64.6532 65.9483C65.812 66.8685 66.7322 67.9591 67.3797 69.186C68.0273 70.4812 68.2999 71.5718 68.2999 72.7646C68.2999 73.9575 68.0273 75.0481 67.3797 76.3432C66.7663 77.5361 65.812 78.6608 64.7214 79.5128C63.7671 80.2626 62.1652 81.2851 61.1428 81.7963C60.1203 82.3075 58.2799 83.0573 57.0529 83.4322C55.826 83.8071 53.9174 84.3184 52.7927 84.5569C51.668 84.7955 48.3621 85 45.4651 85C41.5798 85 39.569 84.8637 37.8649 84.4206C36.6039 84.1139 34.3885 83.3982 32.9571 82.8188C31.4916 82.2735 29.0718 81.0465 27.5722 80.0581C26.0726 79.0698 23.8913 77.3657 22.6985 76.2069C21.5056 75.0481 19.8015 73.1054 18.9495 71.8444C18.0634 70.5834 17.4158 69.4587 17.5181 69.3565C17.6203 69.2542 19.9038 68.5044 22.6303 67.6524C25.3569 66.8344 27.6744 66.255 27.7767 66.3913C27.913 66.5277 28.7991 67.8569 29.8216 69.3565C30.81 70.8561 32.48 72.935 33.5024 73.9916C34.559 75.0481 36.263 76.4455 37.2855 77.093C38.308 77.7406 39.8076 78.5245 40.6255 78.8312C41.4094 79.1379 42.8749 79.5128 43.8633 79.6151C44.8517 79.7514 46.5558 79.6492 47.6805 79.4106C48.8051 79.172 50.1684 78.763 50.7478 78.4904C51.3272 78.2177 52.2815 77.502 52.895 76.8885C53.5084 76.3091 54.156 75.2526 54.3264 74.5369C54.5991 73.5826 54.5309 72.9691 54.156 72.083C53.8493 71.3673 53.2017 70.6516 52.5541 70.3448C51.7362 69.9358 50.8841 69.8336 49.555 69.9358C47.8509 70.1063 47.5782 70.2426 44.9539 73.2418L40.1825 67.7887L41.0345 66.9366C41.5116 66.4595 42.5682 65.6415 43.4202 65.0962C44.2723 64.5509 45.6696 63.8693 46.5898 63.5626C47.476 63.2899 48.1917 62.915 48.1917 62.7105C48.1917 62.506 47.7486 62.3697 46.1468 62.3697L45.9764 20.6195Z" fill="#231F20"/>
<path d="M76.0365 18.9495C77.0249 18.4383 78.729 17.8248 79.7855 17.5521C80.9784 17.2795 83.6368 17.075 86.5337 17.075C89.158 17.0409 92.8389 17.2454 94.7133 17.518C96.5879 17.7907 99.1781 18.336 100.507 18.745C101.802 19.154 103.609 19.8697 104.495 20.3128C105.415 20.7558 107.767 22.4258 109.778 24.0618C111.822 25.6977 113.697 27.1632 113.97 27.3677C114.379 27.6403 115.742 26.5497 120.445 22.3577C123.717 19.4266 126.478 17.0068 126.58 17.0068C126.682 17.0068 127.773 18.1315 131.249 21.9828L126.103 26.652C123.274 29.2422 120.377 31.9006 118.4 33.741L119.798 36.7061C120.581 38.342 121.536 40.83 121.979 42.2614C122.388 43.6588 122.865 45.8059 123.001 47.0329C123.138 48.328 123.069 50.0662 122.865 51.2931C122.66 52.4178 122.115 54.0196 121.706 54.8376C121.297 55.6897 120.172 57.1893 119.252 58.2117C118.162 59.3705 116.73 60.427 115.333 61.1087C113.322 62.097 112.845 62.1993 109.709 62.1652C106.472 62.1652 106.199 62.1311 104.12 60.9723C102.927 60.3248 101.393 59.2001 100.746 58.4503C100.064 57.7005 99.1781 56.3031 98.735 55.3829C98.2919 54.3945 97.8489 52.6564 97.7466 51.2931C97.5762 49.589 97.6785 48.2598 98.0874 46.7602C98.3942 45.6014 99.1099 43.6588 99.6893 42.5C100.269 41.3412 101.598 39.16 104.529 34.9338L103.541 33.0593C102.995 32.0369 101.973 30.435 101.257 29.5489C100.575 28.6628 99.3485 27.5381 98.5305 27.095C97.7466 26.6179 96.9287 26.243 96.7583 26.243C96.5538 26.2089 96.3152 27.095 96.1789 28.1856C96.0085 29.2763 95.4291 31.1167 94.8156 32.3436C94.2021 33.5706 93.0093 35.2747 92.1572 36.1267C91.3052 36.9788 89.9419 38.1035 89.0899 38.5806C88.2378 39.0918 86.5678 39.7394 85.3409 40.0461C83.8413 40.4551 82.3417 40.5573 80.7398 40.4551C79.172 40.3528 77.6724 39.9779 76.3773 39.3986C75.3208 38.8873 73.6508 37.7626 72.6965 36.8765C71.7422 35.9904 70.5834 34.4226 70.0722 33.4002C69.3565 31.9006 69.1861 30.9804 69.1861 28.9695C69.1861 27.0269 69.3565 26.0385 69.9018 24.8797C70.3108 24.0277 71.4696 22.5622 72.4579 21.6079C73.4463 20.6536 75.0822 19.4607 76.0365 18.9495Z" fill="#231F20"/>
<path d="M139.19 23.1756V20.1083V17.0409L151.357 17.0068C162.127 17.0068 163.763 17.075 165.399 17.6203C166.524 17.9952 167.887 18.8132 168.978 19.8015C170 20.6877 171.125 22.1873 171.738 23.3801C172.658 25.1865 172.727 25.6977 172.761 28.7991C172.761 31.9006 172.658 32.3777 171.704 34.4226C171.091 35.6155 170 37.2855 169.216 38.0694C168.432 38.8533 167.001 40.0461 166.012 40.6937C165.058 41.3753 163.32 42.2273 162.195 42.6363C160.934 43.0794 158.889 43.4543 156.776 43.5565C154.936 43.6929 153.368 43.8974 153.3 44.0337C153.232 44.17 153.675 44.5449 154.254 44.8516C154.868 45.1584 156.197 45.9763 157.151 46.7261C158.242 47.51 159.537 48.9415 160.423 50.3388C161.241 51.5998 162.502 53.1676 163.252 53.8152C163.968 54.4627 165.092 55.1784 165.672 55.417C166.319 55.6897 168.091 55.8941 172.931 55.8941V62.3697L156.367 62.1993L153.743 60.9042C151.834 59.984 150.505 58.9956 148.801 57.2915C147.506 55.9623 145.7 53.5766 144.643 51.7702C143.621 50.0321 141.985 47.7486 141.031 46.6921C140.076 45.6696 138.713 44.5449 137.963 44.2382C136.941 43.7951 136.327 43.7269 134.078 44.3063V36.8083L142.666 36.7061C150.573 36.6379 151.425 36.5698 152.823 35.9222C153.675 35.5132 154.97 34.6953 155.686 34.0477C156.436 33.4002 157.288 32.2755 157.628 31.5257C157.969 30.7759 158.276 29.583 158.276 28.8673C158.276 28.1516 158.071 27.1632 157.799 26.652C157.56 26.1407 156.879 25.2887 156.265 24.7775C155.686 24.2662 154.629 23.6869 153.913 23.5164C153.232 23.312 149.619 23.1756 139.19 23.1756Z" fill="#231F20"/>
<path d="M181.622 20.5854L180.702 18.8132L179.782 17.0409H194.403L196.277 20.9603L196.448 55.8941H198.833C200.197 55.8941 201.219 56.0305 201.219 56.235C201.219 56.4054 200.128 57.8709 196.448 62.3697H181.792L181.622 20.5854Z" fill="#231F20"/>
<path d="M235.233 20.8581C235.062 19.6652 234.687 18.9495 233.869 18.1315L232.745 17.0068H247.741L248.695 17.9611C249.274 18.5064 249.786 19.4948 249.956 20.415C250.126 21.267 250.297 29.583 250.297 55.8601H252.171C253.194 55.8601 254.046 56.0305 254.046 56.2009C254.046 56.4054 253.16 57.8709 250.126 62.3697L235.301 62.3356V28.5946L230.972 28.6969C227.632 28.765 226.371 28.9354 225.519 29.3785C224.906 29.7193 223.952 30.4691 223.372 31.0826C222.793 31.6961 221.907 33.0934 221.361 34.2181C220.816 35.3428 220.203 37.1151 219.964 38.1375C219.725 39.1941 219.521 41.5457 219.521 43.4202C219.521 45.6696 219.725 47.5441 220.134 48.8733C220.441 49.998 221.089 51.6339 221.498 52.4519C221.941 53.3039 222.691 54.3945 223.202 54.8376C223.849 55.4511 224.633 55.7578 227.632 56.0305L227.803 62.3356L225.008 62.3697C223.44 62.3697 221.259 62.1311 220.134 61.8244C219.01 61.5517 216.999 60.7678 215.636 60.1203C213.932 59.3023 212.432 58.2458 210.83 56.6439C209.33 55.1443 208.104 53.5084 207.32 51.9407C206.638 50.6455 205.922 48.6347 205.684 47.51C205.411 46.249 205.309 44.1359 205.411 41.8865C205.513 39.3304 205.786 37.7626 206.331 36.263C206.774 35.1383 207.763 33.2298 208.547 32.0028C209.365 30.8099 210.966 28.9014 212.159 27.8107C213.386 26.7201 215.431 25.3228 216.726 24.6752C218.055 24.0277 220.032 23.2779 221.157 23.0052C222.622 22.6303 224.974 22.4599 235.471 22.494L235.233 20.8581Z" fill="#231F20"/>
<path d="M299.136 3.27185C299.818 2.31756 300.908 1.26103 301.794 0.817963C302.783 0.272654 303.839 0 304.998 0C306.123 0 307.213 0.238573 308.236 0.783881C309.088 1.22694 310.213 2.21532 310.792 3.03328C311.61 4.19206 311.848 4.94186 311.951 6.57779C312.019 8.11147 311.917 9.03168 311.474 9.88372C311.133 10.5313 310.553 11.4515 310.144 11.8605C309.77 12.3035 308.815 12.9852 308.065 13.3601C307.213 13.8031 306.055 14.0758 304.998 14.0758C303.942 14.0758 302.783 13.8031 301.931 13.3601C301.181 12.9852 300.227 12.3035 299.852 11.8605C299.443 11.4515 298.863 10.5654 298.557 9.98596C298.25 9.33841 298.011 8.00922 298.011 6.9186C297.977 5.21451 298.148 4.70329 299.136 3.27185Z" fill="#D1232A"/>
<path d="M283.867 19.0858C284.992 18.5405 286.832 17.8589 287.957 17.5862C289.082 17.3136 290.752 17.075 293.41 17.0068L295.626 21.8124L294.33 22.1191C293.513 22.3236 292.592 22.9711 291.74 23.9254C290.99 24.7434 290.07 26.1748 289.661 27.095C289.252 28.0493 288.741 29.4808 288.537 30.3328C288.332 31.1848 288.059 33.0253 287.923 34.4226C287.821 35.82 287.855 38.0353 288.059 39.3645C288.264 40.6596 288.741 42.4659 289.15 43.3861C289.525 44.2723 290.411 45.6355 291.093 46.4194C291.808 47.1692 292.899 48.0213 293.478 48.2939C294.092 48.5325 295.183 48.737 295.864 48.737C296.58 48.737 297.773 48.5666 298.523 48.3621C299.272 48.1576 300.397 47.6123 302.101 46.3512V34.0136C302.101 26.0044 301.965 21.1648 301.726 20.2787C301.522 19.5289 301.045 18.5064 300.056 17.0409H307.316C313.791 17.0068 314.609 17.075 315.12 17.6203C315.461 17.9611 315.938 18.8472 316.211 19.597C316.654 20.7217 316.722 23.9595 316.756 55.8941H318.801C319.926 55.8941 320.846 55.9964 320.846 56.1668C320.846 56.3031 319.721 57.7686 315.904 62.4038L302.101 62.3697V52.1451L299.784 53.5084C298.523 54.2582 296.648 55.0421 295.626 55.2466C294.535 55.4852 292.524 55.5533 290.854 55.4511C289.252 55.3488 287.037 54.9399 285.912 54.565C284.788 54.1901 282.913 53.2358 281.72 52.486C280.561 51.7362 278.96 50.4751 278.142 49.6572C277.358 48.8392 276.199 47.4419 275.585 46.4876C274.972 45.5674 274.154 43.9655 273.745 42.9431C273.268 41.682 272.995 39.9439 272.893 37.6604C272.757 35.5814 272.859 33.5365 273.132 32.3777C273.336 31.3553 273.984 29.583 274.529 28.4583C275.04 27.3336 276.131 25.6636 276.881 24.7093C277.664 23.7891 279.096 22.3577 280.05 21.5397C281.039 20.7217 282.743 19.6311 283.867 19.0858Z" fill="#0173BC"/>
<path d="M334.138 18.3701C335.16 17.9611 336.626 17.5521 337.376 17.3817C338.126 17.2454 344.669 17.1091 365.152 17.0409V23.1756H355.95C350.327 23.1756 346.067 23.312 344.942 23.5505C343.681 23.8573 342.863 24.3003 342.045 25.0842C341.193 25.9703 340.954 26.5497 340.954 27.5381C340.954 28.2538 341.295 29.3103 341.738 29.9579C342.147 30.6055 343.102 31.4575 343.851 31.9006C344.601 32.3095 346.135 32.8549 347.26 33.0593C348.555 33.332 350.225 33.4002 351.861 33.2298C353.258 33.0934 354.826 32.8549 356.291 32.3777V39.3645L352.304 39.569C349.373 39.7053 347.873 39.9439 346.748 40.4551C345.896 40.83 344.601 41.648 343.885 42.2955C343.136 42.9431 342.181 44.2382 341.738 45.1584C341.227 46.2831 340.954 47.51 340.954 48.737C340.954 50.0321 341.193 51.0886 341.704 52.1111C342.147 52.9631 343.067 54.1219 343.783 54.6672C344.908 55.5874 345.453 55.7237 347.362 55.826C349.236 55.8941 349.884 55.7919 351.009 55.1443C351.724 54.7013 352.815 53.6788 353.394 52.895C354.28 51.5658 354.417 51.0886 354.587 46.0104H369.242V48.1576C369.242 49.3164 369.004 51.0545 368.663 51.9747C368.254 53.2017 367.504 54.2923 365.868 55.9282C364.198 57.5982 362.869 58.5525 360.722 59.6091C358.881 60.4952 356.564 61.2791 354.417 61.7221C351.52 62.3356 350.293 62.4038 346.067 62.2674C342.727 62.1311 340.307 61.8244 338.569 61.3813C337.171 61.0064 334.922 60.1544 333.627 59.5068C332.025 58.7229 330.628 57.7005 329.367 56.3372C328.037 54.9739 327.288 53.8152 326.845 52.486C326.401 51.1568 326.265 49.9298 326.333 48.2257C326.436 46.6239 326.742 45.2947 327.322 44.1359C327.765 43.2157 328.924 41.648 329.878 40.6937C330.798 39.7394 332.434 38.5465 335.331 37.081L332.945 35.9563C331.65 35.3428 329.912 34.184 329.094 33.4342C328.31 32.6504 327.322 31.3893 326.947 30.6055C326.367 29.4467 326.231 28.6628 326.333 26.8905C326.436 25.0842 326.674 24.3685 327.492 23.1756C328.071 22.3917 329.367 21.1307 330.389 20.3809C331.411 19.6652 333.116 18.745 334.138 18.3701Z" fill="#0173BC"/>
<path d="M407.721 19.9379C407.482 19.3585 406.971 18.5064 406.63 17.9952L405.982 17.0409H413.344C419.922 17.0409 420.774 17.1091 421.285 17.6544C421.592 17.9611 422.069 18.7791 422.376 19.4266C422.853 20.4491 422.921 23.0052 423.092 55.8941H425.477C426.772 55.8941 427.863 55.9964 427.863 56.1668C427.863 56.3031 426.806 57.7346 423.092 62.3697H408.436V35.1043H399.745L400.563 37.5922C401.245 39.7053 401.347 40.5573 401.211 43.6247C401.109 46.6921 400.938 47.51 400.052 49.4186C399.507 50.6455 398.348 52.3837 397.53 53.2698C396.678 54.1901 395.315 55.3829 394.463 55.8941C393.611 56.4395 391.941 57.1552 390.714 57.4619C389.146 57.8709 387.851 57.9391 386.283 57.8027C384.92 57.6664 383.25 57.1893 381.955 56.5758C380.762 55.9964 379.058 54.8376 378.172 53.9515C377.286 53.0313 376.127 51.6339 375.616 50.7819C375.138 49.9298 374.491 48.328 374.184 47.2033C373.911 46.0786 373.673 44.3063 373.673 43.2839C373.673 42.2614 373.877 40.6596 374.15 39.7053C374.389 38.7851 375.002 37.1832 375.479 36.229C375.99 35.2406 377.115 33.7069 378.035 32.7867C378.922 31.9006 380.489 30.7418 381.512 30.2306C382.534 29.7534 384.238 29.174 385.261 28.9695C386.283 28.765 391.975 28.6287 408.607 28.6287L408.368 24.8116C408.266 22.6985 407.959 20.5172 407.721 19.9379Z" fill="#0173BC"/>
<path d="M81.5237 25.2205C81.8645 24.7434 82.6825 24.0958 83.33 23.755C84.0798 23.3801 84.8637 23.2097 85.5112 23.346C86.0566 23.4483 86.9768 23.9595 87.488 24.4707C87.9992 24.982 88.5786 25.9703 88.749 26.652C88.9535 27.3677 88.9876 28.2197 88.8853 28.5265C88.7831 28.8673 88.5104 29.583 88.306 30.1283C88.0674 30.6395 87.4198 31.3893 86.8745 31.7301C86.3292 32.071 85.4431 32.3777 84.8978 32.3777C84.3865 32.3777 83.5004 32.1391 82.9551 31.8665C82.3757 31.5938 81.6941 30.844 81.3873 30.2305C81.0806 29.6512 80.842 28.4583 80.842 27.6062C80.8761 26.652 81.1147 25.7318 81.5237 25.2205Z" fill="white"/>
<path d="M384.545 40.0461C384.75 39.2963 385.397 37.8308 386.011 36.8083L387.067 34.9338L387.749 36.4675C388.124 37.3196 388.635 39.16 388.942 40.5573C389.351 42.6704 389.385 43.6247 389.044 46.0104C388.839 47.6123 388.396 49.4527 388.055 50.1002C387.612 50.9864 387.272 51.2931 386.624 51.2931C385.976 51.2931 385.602 50.9864 385.09 49.9298C384.579 48.9074 384.409 47.6804 384.306 44.988C384.238 43.0112 384.341 40.7959 384.545 40.0461Z" fill="white"/>
<path d="M105.654 45.431C105.926 44.4427 106.574 43.1475 107.085 42.5682C107.835 41.7161 108.073 41.6139 108.414 41.9888C108.653 42.2273 109.403 43.352 110.05 44.4767C110.732 45.6014 111.448 47.3055 111.652 48.2257C111.993 49.589 111.959 50.1684 111.584 51.0886C111.311 51.7362 110.8 52.4519 110.425 52.7245C110.05 52.9631 109.096 53.1676 108.278 53.1676C107.187 53.1676 106.642 52.9631 105.994 52.3155C105.279 51.5998 105.142 51.1568 105.142 49.3504C105.142 48.1576 105.347 46.3853 105.654 45.431Z" fill="white"/>
</svg>
